<svg xmlns="http://www.w3.org/2000/svg" width="106.159" height="67.205" viewBox="0 0 106.159 67.205">
  <g id="air-conditioner-6" transform="translate(0 -93.937)">
    <g id="Group_134" data-name="Group 134" transform="translate(0 93.937)">
      <g id="Group_133" data-name="Group 133">
        <path id="Path_184" data-name="Path 184" d="M100.108,93.937H6.051A6.058,6.058,0,0,0,0,99.988v55.1a6.058,6.058,0,0,0,6.051,6.051h94.057a6.058,6.058,0,0,0,6.051-6.051v-55.1A6.058,6.058,0,0,0,100.108,93.937Zm0,62.976H6.051a1.824,1.824,0,0,1-1.822-1.822v-55.1a1.824,1.824,0,0,1,1.822-1.822h94.057a1.824,1.824,0,0,1,1.822,1.822v55.1h0A1.824,1.824,0,0,1,100.108,156.913Z" transform="translate(0 -93.937)" fill="#332b00"/>
      </g>
    </g>
    <g id="Group_136" data-name="Group 136" transform="translate(9.939 103.22)">
      <g id="Group_135" data-name="Group 135">
        <path id="Path_185" data-name="Path 185" d="M72.255,138.709a24.319,24.319,0,1,0,24.319,24.319A24.347,24.347,0,0,0,72.255,138.709Zm0,44.409a20.09,20.09,0,1,1,20.09-20.09A20.113,20.113,0,0,1,72.255,183.118Z" transform="translate(-47.936 -138.709)" fill="#332b00"/>
      </g>
    </g>
    <g id="Group_138" data-name="Group 138" transform="translate(16.559 108.868)">
      <g id="Group_137" data-name="Group 137">
        <path id="Path_186" data-name="Path 186" d="M115.584,186.029a4.812,4.812,0,0,0-4.747-2.208,18.517,18.517,0,0,1-7.027-.415,6.584,6.584,0,0,0-1.626-3.088,5.081,5.081,0,0,1,.883-1.436,9.273,9.273,0,0,0,2.3-6.111,6.571,6.571,0,0,0-6.258-6.569l-5.037-.244a4.857,4.857,0,0,0-4.08,7.819,18.258,18.258,0,0,1,3.084,6.043,6.607,6.607,0,0,0-2.057,3.231,5.064,5.064,0,0,1-1.419-.076,9.274,9.274,0,0,0-6.441,1.066,6.57,6.57,0,0,0-2.56,8.7l2.306,4.484a4.806,4.806,0,0,0,4.31,2.635c.072,0,.144,0,.216,0a4.81,4.81,0,0,0,4.286-3.007,18.256,18.256,0,0,1,3.727-5.73,6.582,6.582,0,0,0,3.679.05,5.065,5.065,0,0,1,.756,1.42,9.274,9.274,0,0,0,4.144,5.045,6.568,6.568,0,0,0,8.818-2.135l2.73-4.24A4.808,4.808,0,0,0,115.584,186.029ZM87.8,195.245a.628.628,0,0,1-1.139.049l-2.306-4.484a2.346,2.346,0,0,1,.914-3.107,5.047,5.047,0,0,1,3.5-.58,9.316,9.316,0,0,0,2.475.149,6.6,6.6,0,0,0,.738,1.35A22.455,22.455,0,0,0,87.8,195.245Zm9.567-8.064a2.365,2.365,0,1,1,2.365-2.365A2.368,2.368,0,0,1,97.369,187.182ZM99.885,176.1a9.322,9.322,0,0,0-1.437,2.216,6.61,6.61,0,0,0-1.079-.09c-.12,0-.239,0-.357.01a22.451,22.451,0,0,0-3.674-7.04.628.628,0,0,1,.527-1.01l5.037.244a2.345,2.345,0,0,1,2.234,2.345A5.043,5.043,0,0,1,99.885,176.1Zm12.127,12.878-2.73,4.24a2.345,2.345,0,0,1-3.148.762,5.045,5.045,0,0,1-2.254-2.745,9.326,9.326,0,0,0-1.259-2.432,6.613,6.613,0,0,0,.706-1.159,22.778,22.778,0,0,0,8.074.373.627.627,0,0,1,.611.961Z" transform="translate(-79.864 -165.951)" fill="#332b00"/>
      </g>
    </g>
    <g id="Group_140" data-name="Group 140" transform="translate(64.499 103.855)">
      <g id="Group_139" data-name="Group 139">
        <path id="Path_187" data-name="Path 187" d="M341.316,141.769H313.191a2.115,2.115,0,1,0,0,4.229h28.126a2.115,2.115,0,1,0,0-4.229Z" transform="translate(-311.076 -141.769)" fill="#332b00"/>
      </g>
    </g>
    <g id="Group_142" data-name="Group 142" transform="translate(64.499 114.64)">
      <g id="Group_141" data-name="Group 141">
        <path id="Path_188" data-name="Path 188" d="M341.316,193.785H313.191a2.115,2.115,0,0,0,0,4.229h28.126a2.115,2.115,0,1,0,0-4.229Z" transform="translate(-311.076 -193.785)" fill="#332b00"/>
      </g>
    </g>
    <g id="Group_144" data-name="Group 144" transform="translate(64.499 125.425)">
      <g id="Group_143" data-name="Group 143">
        <path id="Path_189" data-name="Path 189" d="M341.316,245.8H313.191a2.115,2.115,0,1,0,0,4.229h28.126a2.115,2.115,0,1,0,0-4.229Z" transform="translate(-311.076 -245.801)" fill="#332b00"/>
      </g>
    </g>
    <g id="Group_146" data-name="Group 146" transform="translate(64.499 136.21)">
      <g id="Group_145" data-name="Group 145">
        <path id="Path_190" data-name="Path 190" d="M341.316,297.817H313.191a2.115,2.115,0,1,0,0,4.229h28.126a2.115,2.115,0,0,0,0-4.229Z" transform="translate(-311.076 -297.817)" fill="#332b00"/>
      </g>
    </g>
    <g id="Group_148" data-name="Group 148" transform="translate(64.499 146.995)">
      <g id="Group_147" data-name="Group 147">
        <path id="Path_191" data-name="Path 191" d="M332.858,349.833H313.191a2.115,2.115,0,0,0,0,4.229h19.667a2.115,2.115,0,0,0,0-4.229Z" transform="translate(-311.076 -349.833)" fill="#332b00"/>
      </g>
    </g>
    <g id="Group_150" data-name="Group 150" transform="translate(91.567 146.995)">
      <g id="Group_149" data-name="Group 149">
        <path id="Path_192" data-name="Path 192" d="M444.8,349.833H443.74a2.115,2.115,0,0,0,0,4.229H444.8a2.115,2.115,0,0,0,0-4.229Z" transform="translate(-441.625 -349.833)" fill="#332b00"/>
      </g>
    </g>
  </g>
</svg>
