<svg id="air-conditioner-4" xmlns="http://www.w3.org/2000/svg" width="114.349" height="104.82" viewBox="0 0 114.349 104.82">
  <path id="Path_173" data-name="Path 173" d="M236.316,350.04a1.9,1.9,0,0,1-1.357-.568c-2.941-2.986-4.408-6.09-4.359-9.229.047-3.057,1.528-5.994,4.4-8.733,2.148-2,3.242-4.042,3.266-6.083.025-2.108-1.078-4.269-3.282-6.421a1.906,1.906,0,1,1,2.663-2.727c2.977,2.909,4.468,6,4.429,9.194-.038,3.125-1.54,6.089-4.463,8.812-2.089,1.992-3.171,4.021-3.2,6.019-.032,2.079,1.065,4.263,3.263,6.494a1.9,1.9,0,0,1-1.357,3.242Zm0,0" transform="translate(-179.098 -245.221)" fill="#332b00"/>
  <path id="Path_174" data-name="Path 174" d="M329.985,350.04a1.9,1.9,0,0,1-1.357-.568c-2.94-2.986-4.407-6.09-4.359-9.229.048-3.057,1.528-5.994,4.4-8.733,2.163-2.014,3.263-4.067,3.287-6.116.024-2.1-1.071-4.25-3.259-6.389a1.906,1.906,0,0,1,2.663-2.727c2.964,2.9,4.447,5.977,4.408,9.159-.038,3.134-1.548,6.11-4.486,8.845-2.089,1.991-3.174,4.021-3.2,6.018-.033,2.078,1.065,4.263,3.262,6.5a1.907,1.907,0,0,1-1.358,3.244Zm0,0" transform="translate(-251.847 -245.221)" fill="#332b00"/>
  <path id="Path_175" data-name="Path 175" d="M142.254,350.04a1.9,1.9,0,0,1-1.357-.568c-2.941-2.986-4.408-6.09-4.359-9.229.047-3.057,1.528-5.994,4.4-8.733,2.163-2.014,3.263-4.067,3.287-6.116.025-2.1-1.07-4.25-3.258-6.389a1.906,1.906,0,0,1,2.663-2.727c2.964,2.9,4.446,5.977,4.407,9.159-.038,3.134-1.547,6.11-4.486,8.845-2.089,1.991-3.173,4.021-3.2,6.018-.032,2.078,1.065,4.263,3.263,6.5a1.907,1.907,0,0,1-1.359,3.244Zm0,0" transform="translate(-106.043 -245.221)" fill="#332b00"/>
  <path id="Path_176" data-name="Path 176" d="M68.352,45.568H53.105A1.906,1.906,0,0,1,51.2,43.662V36.039a1.907,1.907,0,0,1,1.906-1.906H68.352a1.907,1.907,0,0,1,1.906,1.906v7.623A1.906,1.906,0,0,1,68.352,45.568ZM55.011,41.756H66.446V37.944H55.011Zm0,0" transform="translate(-39.764 -26.51)" fill="#332b00"/>
  <path id="Path_177" data-name="Path 177" d="M447.546,55.011H445.64a1.906,1.906,0,0,1,0-3.812h1.906a1.906,1.906,0,0,1,0,3.812Zm0,0" transform="translate(-344.632 -39.764)" fill="#332b00"/>
  <path id="Path_178" data-name="Path 178" d="M404.878,55.011h-1.905a1.906,1.906,0,1,1,0-3.812h1.905a1.906,1.906,0,1,1,0,3.812Zm0,0" transform="translate(-311.493 -39.764)" fill="#332b00"/>
  <path id="Path_179" data-name="Path 179" d="M362.21,55.011H360.3a1.906,1.906,0,1,1,0-3.812h1.905a1.906,1.906,0,1,1,0,3.812Zm0,0" transform="translate(-278.354 -39.764)" fill="#332b00"/>
  <path id="Path_180" data-name="Path 180" d="M112.443,26.681H1.906A1.906,1.906,0,0,1,0,24.776V9.529A9.54,9.54,0,0,1,9.529,0h95.29a9.54,9.54,0,0,1,9.529,9.529V24.776A1.906,1.906,0,0,1,112.443,26.681ZM3.812,22.869H110.538V9.529a5.724,5.724,0,0,0-5.718-5.718H9.529A5.724,5.724,0,0,0,3.812,9.529Zm0,0" fill="#332b00"/>
  <path id="Path_181" data-name="Path 181" d="M127.9,210.6H52.763a7.617,7.617,0,0,1-7.34-5.615l-2.524-9.3a6.794,6.794,0,0,1,1.173-5.8,5.441,5.441,0,0,1,4.278-2.155H132.31a5.444,5.444,0,0,1,4.278,2.153,6.765,6.765,0,0,1,1.184,5.76l-2.535,9.34A7.613,7.613,0,0,1,127.9,210.6ZM48.349,191.546a1.671,1.671,0,0,0-1.277.694,2.971,2.971,0,0,0-.483,2.5l2.512,9.255a3.8,3.8,0,0,0,3.662,2.8H127.9a3.8,3.8,0,0,0,3.662-2.8l2.524-9.3a2.953,2.953,0,0,0-.5-2.455,1.671,1.671,0,0,0-1.277-.694Zm0,0" transform="translate(-33.156 -145.806)" fill="#332b00"/>
  <path id="Path_182" data-name="Path 182" d="M104.82,60.986H100.1a1.9,1.9,0,0,1-1.795-2.54c.007-.023.07-.188.079-.209l2.545-9.348a2.95,2.95,0,0,0-.5-2.455,1.678,1.678,0,0,0-1.279-.694H15.193a1.671,1.671,0,0,0-1.277.694,2.971,2.971,0,0,0-.483,2.5l2.512,9.255c.01.021.093.238.1.261a1.9,1.9,0,0,1-1.8,2.539H9.529A9.54,9.54,0,0,1,0,51.457V9.529A9.54,9.54,0,0,1,9.529,0h95.29a9.54,9.54,0,0,1,9.529,9.529V51.457A9.54,9.54,0,0,1,104.82,60.986Zm-2.192-3.812h2.192a5.724,5.724,0,0,0,5.718-5.718V9.529a5.724,5.724,0,0,0-5.718-5.718H9.529A5.724,5.724,0,0,0,3.812,9.529V51.457a5.724,5.724,0,0,0,5.718,5.718h2.192l-1.979-7.29a6.794,6.794,0,0,1,1.173-5.8,5.444,5.444,0,0,1,4.278-2.153H99.154a5.444,5.444,0,0,1,4.278,2.153,6.765,6.765,0,0,1,1.184,5.76Zm0,0" fill="#332b00"/>
  <path id="Path_183" data-name="Path 183" d="M139.087,234.21H50.059a1.906,1.906,0,1,1,0-3.812h89.026a1.906,1.906,0,0,1,0,3.812Zm0,0" transform="translate(-37.398 -178.942)" fill="#332b00"/>
</svg>
