<svg id="consultation" xmlns="http://www.w3.org/2000/svg" width="79.611" height="79.611" viewBox="0 0 79.611 79.611">
  <path id="Path_127" data-name="Path 127" d="M200.988,20.718l9.453-7.877h12.376V0H192V12.841h8.988Zm-6.42-10.445v-7.7h25.681v7.7H209.512l-5.956,4.963V10.272Zm0,0" transform="translate(-161.183)" fill="#ffd800"/>
  <path id="Path_128" data-name="Path 128" d="M224,32h2.568v2.568H224Zm0,0" transform="translate(-188.046 -26.864)" fill="#ffd800"/>
  <path id="Path_129" data-name="Path 129" d="M256,32h10.272v2.568H256Zm0,0" transform="translate(-214.91 -26.864)" fill="#ffd800"/>
  <path id="Path_130" data-name="Path 130" d="M336,32h2.568v2.568H336Zm0,0" transform="translate(-282.07 -26.864)" fill="#ffd800"/>
  <path id="Path_131" data-name="Path 131" d="M65.364,177.782l-1.038-10.395a8.994,8.994,0,0,0,7.581-8.866V141.829H66.771v-1.774a4.619,4.619,0,0,0-2.5-4.117,7.674,7.674,0,0,0,2.5-5.665V127.7a7.7,7.7,0,0,0-15.409,0v2.568a7.71,7.71,0,0,0,5.076,7.233L49.546,144.4h-7.2a5.149,5.149,0,0,0-3.7-4.6l-5.263-1.5V136a7.678,7.678,0,0,0,2.568-5.727V127.7a7.7,7.7,0,0,0-15.409,0v2.568A7.682,7.682,0,0,0,23.113,136v2.295l-5.263,1.5a5.156,5.156,0,0,0-3.725,4.939v4.8H8.988v7.7h2.568v20.545H0v2.568H79.611v-2.568ZM53.93,157.238v-5.889l9.1-9.1a4.022,4.022,0,0,0,1.137-2.463,2.091,2.091,0,0,1,.037.267v15.9a3.857,3.857,0,0,1-3.852,3.852H50.078v-2.568ZM50.078,167.51h6.543l1.027,10.272h-7.57Zm9.123,0h2.556l1.027,10.272H60.228Zm7.57-11.556V144.4h2.568v14.125a6.428,6.428,0,0,1-6.42,6.42H50.078v-2.568H60.351A6.428,6.428,0,0,0,66.771,155.954ZM53.93,130.272V127.7a5.136,5.136,0,0,1,10.272,0v2.568a5.136,5.136,0,1,1-10.272,0Zm-3.32,16.693,8.567-8.567a1.44,1.44,0,0,1,2.036,2.036l-9.1,9.1H38.522a1.284,1.284,0,1,1,0-2.568ZM23.113,127.7a5.136,5.136,0,0,1,10.272,0v2.568a5.136,5.136,0,1,1-10.272,0Zm5.136,10.272a7.667,7.667,0,0,0,2.568-.45v1.379a3.283,3.283,0,0,1-2.568,1.638,3.283,3.283,0,0,1-2.568-1.638v-1.379A7.667,7.667,0,0,0,28.249,137.977Zm-11.556,6.758a2.58,2.58,0,0,1,1.862-2.47l5.29-1.511a5.592,5.592,0,0,0,4.4,2.359,5.59,5.59,0,0,0,4.4-2.36l5.29,1.511A2.559,2.559,0,0,1,39.75,144.4H38.522a3.857,3.857,0,0,0-3.852,3.852,3.8,3.8,0,0,0,.236,1.284H16.693ZM11.556,152.1H51.362v2.568H11.556Zm2.568,10.272h3.852v-2.568H14.125v-2.568H47.51v2.568H20.545v2.568H47.51v15.409H44.452l-2.568-5.136H19.751l-2.568,5.136H14.125ZM41.58,177.782H20.055l1.284-2.568H40.3Zm0,0" transform="translate(0 -100.739)" fill="#ffd800"/>
</svg>
