<svg xmlns="http://www.w3.org/2000/svg" width="68.813" height="68.814" viewBox="0 0 68.813 68.814">
  <g id="money" transform="translate(-0.007)">
    <g id="Group_79" data-name="Group 79" transform="translate(9.146 60.75)">
      <g id="Group_78" data-name="Group 78">
        <path id="Path_132" data-name="Path 132" d="M70.3,452.395a1.343,1.343,0,1,0,.394.95A1.353,1.353,0,0,0,70.3,452.395Z" transform="translate(-68.003 -452.001)" fill="#ffd800"/>
      </g>
    </g>
    <g id="Group_81" data-name="Group 81" transform="translate(60.817 24.194)">
      <g id="Group_80" data-name="Group 80">
        <path id="Path_133" data-name="Path 133" d="M454.748,180.4a1.34,1.34,0,1,0,.4.95A1.351,1.351,0,0,0,454.748,180.4Z" transform="translate(-452.454 -180.008)" fill="#ffd800"/>
      </g>
    </g>
    <g id="Group_83" data-name="Group 83" transform="translate(0.007)">
      <g id="Group_82" data-name="Group 82" transform="translate(0)">
        <path id="Path_134" data-name="Path 134" d="M68.426.394A1.345,1.345,0,0,0,67.475,0L34.413,0a1.344,1.344,0,0,0-1.344,1.344V5.189L20.329,8.6a1.344,1.344,0,0,0-.95,1.646l6.6,24.642L20.27,40.6a4.03,4.03,0,0,0-3.328-1.76H4.039A4.037,4.037,0,0,0,.007,42.875V64.782a4.037,4.037,0,0,0,4.032,4.032h12.9a4.039,4.039,0,0,0,3.913-3.062l1.6,1.394A6.771,6.771,0,0,0,26.9,68.814H67.476A1.344,1.344,0,0,0,68.82,67.47V1.344A1.345,1.345,0,0,0,68.426.394ZM18.285,64.782a1.346,1.346,0,0,1-1.344,1.344H4.039a1.346,1.346,0,0,1-1.344-1.344V42.875a1.346,1.346,0,0,1,1.344-1.344H9.146V57.014a1.344,1.344,0,1,0,2.688,0V41.531h5.107a1.346,1.346,0,0,1,1.344,1.344V64.782Zm4.038-53.931L33.069,7.972v4.98l-.9.241a1.344,1.344,0,0,0-.95,1.646,3.623,3.623,0,0,1-2.559,4.432,1.344,1.344,0,0,0-.95,1.649l5.239,19.4h-2.7l-1.39-5.438a1.342,1.342,0,0,0-.225-.471Zm10.746,8.264V30.457L30.618,21.38A6.3,6.3,0,0,0,33.069,19.116Zm19.309,47.01H26.9a4.084,4.084,0,0,1-2.685-1.006L20.973,62.29V43.7l5.868-5.868L27.905,42a1.344,1.344,0,0,0,1.3,1.011l26.424,0a1.882,1.882,0,0,1,0,3.763H42.092a1.344,1.344,0,0,0,0,2.688H59.838a1.882,1.882,0,1,1,0,3.763H42.092a1.344,1.344,0,1,0,0,2.688H56.962a1.882,1.882,0,1,1,0,3.763H42.092a1.344,1.344,0,0,0,0,2.688H52.378a1.881,1.881,0,1,1,0,3.763Zm13.754,0H56.541a4.553,4.553,0,0,0,0-3.763h.422a4.567,4.567,0,0,0,4.085-6.615,4.566,4.566,0,0,0,2.459-7.128V31.586a1.344,1.344,0,1,0-2.688,0V46.88a4.571,4.571,0,0,0-.98-.107h-.044a4.567,4.567,0,0,0-4.163-6.451H53.471a6.432,6.432,0,1,0-5.054,0H41.07V14.766a6.327,6.327,0,0,0,4.819-4.819H56a6.327,6.327,0,0,0,4.819,4.819v4.179a1.344,1.344,0,1,0,2.688,0V13.566a1.344,1.344,0,0,0-1.344-1.344A3.623,3.623,0,0,1,58.543,8.6,1.344,1.344,0,0,0,57.2,7.259H44.689A1.344,1.344,0,0,0,43.345,8.6a3.623,3.623,0,0,1-3.619,3.619,1.344,1.344,0,0,0-1.344,1.344V40.321H35.757V2.69H66.132ZM50.944,38.151a3.744,3.744,0,1,1,3.744-3.744A3.748,3.748,0,0,1,50.944,38.151Z" transform="translate(-0.007)" fill="#ffd800"/>
      </g>
    </g>
  </g>
</svg>
