<svg xmlns="http://www.w3.org/2000/svg" width="82.686" height="82.807" viewBox="0 0 82.686 82.807">
  <g id="phone-call" transform="translate(-0.344)">
    <g id="Group_84" data-name="Group 84" transform="translate(0.344 0)">
      <path id="Path_138" data-name="Path 138" d="M65.727,73.912A8.144,8.144,0,0,0,59.82,71.2a8.422,8.422,0,0,0-5.977,2.691L48.32,79.4c-.454-.245-.909-.472-1.346-.7-.629-.315-1.223-.612-1.73-.926A60.024,60.024,0,0,1,30.861,64.667a35.412,35.412,0,0,1-4.719-7.445c1.433-1.311,2.761-2.674,4.055-3.985.489-.489.979-1,1.468-1.486,3.67-3.67,3.67-8.424,0-12.094l-4.771-4.771c-.542-.542-1.1-1.1-1.625-1.66-1.049-1.084-2.15-2.2-3.286-3.251a8.273,8.273,0,0,0-5.855-2.569,8.561,8.561,0,0,0-5.942,2.569l-.035.035L4.209,36A12.786,12.786,0,0,0,.416,44.131,30.637,30.637,0,0,0,2.653,57.1c2.831,7.637,7.061,14.716,13.37,22.3a82.244,82.244,0,0,0,27.386,21.444c4.02,1.9,9.385,4.159,15.38,4.544.367.017.751.035,1.1.035a13.169,13.169,0,0,0,10.084-4.334c.017-.035.052-.052.07-.087A39.729,39.729,0,0,1,73.1,97.838c.752-.717,1.52-1.468,2.272-2.255a8.718,8.718,0,0,0,2.639-6.047,8.4,8.4,0,0,0-2.691-5.995Zm6.257,18.4c-.017,0-.017.017,0,0-.682.734-1.381,1.4-2.132,2.132a45.951,45.951,0,0,0-3.373,3.5,8.425,8.425,0,0,1-6.571,2.779c-.262,0-.542,0-.8-.017-5.191-.332-10.014-2.359-13.632-4.09a77.633,77.633,0,0,1-25.8-20.2c-5.96-7.183-9.944-13.824-12.583-20.955C5.467,51.1,4.873,47.714,5.135,44.516a8.023,8.023,0,0,1,2.412-5.191l5.96-5.96a3.973,3.973,0,0,1,2.656-1.241,3.738,3.738,0,0,1,2.552,1.223l.052.052c1.066,1,2.08,2.027,3.146,3.128.542.559,1.1,1.119,1.66,1.7L28.344,43c1.853,1.853,1.853,3.565,0,5.418-.507.507-1,1.014-1.5,1.5-1.468,1.5-2.866,2.9-4.387,4.264-.035.035-.07.052-.087.087a3.565,3.565,0,0,0-.909,3.967l.052.157a38.3,38.3,0,0,0,5.645,9.21l.017.017A64.146,64.146,0,0,0,42.693,81.742a23.859,23.859,0,0,0,2.15,1.171c.629.315,1.223.612,1.73.926.07.035.14.087.21.122a3.789,3.789,0,0,0,1.73.437,3.737,3.737,0,0,0,2.656-1.206l5.977-5.977A3.954,3.954,0,0,1,59.785,75.9,3.559,3.559,0,0,1,62.3,77.18l.035.035,9.63,9.63C73.767,88.627,73.767,90.463,71.984,92.315Z" transform="translate(-0.344 -22.616)" fill="#ffd800"/>
      <path id="Path_139" data-name="Path 139" d="M246.886,90.606A22.492,22.492,0,0,1,265.2,108.921a2.345,2.345,0,0,0,2.324,1.957,3.119,3.119,0,0,0,.4-.035,2.362,2.362,0,0,0,1.94-2.726,27.2,27.2,0,0,0-22.161-22.161,2.372,2.372,0,0,0-2.726,1.922A2.334,2.334,0,0,0,246.886,90.606Z" transform="translate(-202.195 -70.908)" fill="#ffd800"/>
      <path id="Path_140" data-name="Path 140" d="M288.008,36.528A44.784,44.784,0,0,0,251.516.036a2.356,2.356,0,1,0-.769,4.649A40,40,0,0,1,283.359,37.3a2.345,2.345,0,0,0,2.324,1.957,3.119,3.119,0,0,0,.4-.035A2.315,2.315,0,0,0,288.008,36.528Z" transform="translate(-205.357 0)" fill="#ffd800"/>
    </g>
  </g>
</svg>
