<svg xmlns="http://www.w3.org/2000/svg" width="61.523" height="84.243" viewBox="0 0 61.523 84.243">
  <g id="racing-flag" transform="translate(-60.681 0)">
    <g id="Group_130" data-name="Group 130" transform="translate(60.68 0)">
      <path id="Path_150" data-name="Path 150" d="M65.785,67.424A2.591,2.591,0,1,0,60.76,68.7l16.931,66.8a2.592,2.592,0,0,0,5.024-1.273Z" transform="translate(-60.68 -53.212)" fill="#ffd800"/>
      <path id="Path_151" data-name="Path 151" d="M154.2,33.027q-4.139-15.283-8.281-30.564a2.781,2.781,0,0,0-2.795-2.4C127.609-1.066,117.42,14.387,101.9,13.263c-1.225-.151-2.012.487-1.713,1.59,2.76,10.188,5.5,20.383,8.281,30.565a3.069,3.069,0,0,0,2.8,2.4c15.517,1.124,25.706-14.329,41.224-13.205C153.714,34.767,154.5,34.13,154.2,33.027ZM142.025,3.9q1.142,4.216,2.285,8.433a28,28,0,0,0-9.2,1.91q-1.142-4.216-2.284-8.433A28.006,28.006,0,0,1,142.025,3.9ZM110.049,35.419q-1.3-4.79-2.6-9.582a27.709,27.709,0,0,0,9.66-2.1q-1.143-4.216-2.285-8.433a93.064,93.064,0,0,0,8.99-4.778q1.142,4.216,2.285,8.433a93.113,93.113,0,0,1-8.99,4.778l2.6,9.582A27.717,27.717,0,0,1,110.049,35.419Zm11.978,6.454-2.318-8.557a92.185,92.185,0,0,0,8.927-4.741l2.318,8.557A92.117,92.117,0,0,1,122.028,41.873ZM128.7,28.538q-1.3-4.791-2.6-9.582a83.588,83.588,0,0,1,9.008-4.71q1.3,4.791,2.6,9.581A83.722,83.722,0,0,0,128.7,28.538Zm11.381,3.825-2.319-8.556a27.956,27.956,0,0,1,9.144-1.888l2.319,8.556A27.954,27.954,0,0,0,140.08,32.363Z" transform="translate(-92.742 0)" fill="#ffd800"/>
    </g>
  </g>
</svg>
