<svg id="replacement" xmlns="http://www.w3.org/2000/svg" width="34.521" height="34.53" viewBox="0 0 34.521 34.53">
  <g id="Слой_1" data-name="Слой 1">
    <path id="Path_95" data-name="Path 95" d="M6.906,0a5.692,5.692,0,0,1,.5.574q2.7,4.007,5.387,8.02c.559.836.262,1.427-.749,1.5-.56.04-1.125.014-1.688.018-.956.009-1.005.051-1.007.993v8.056c0,2.276.032,4.553-.02,6.828-.017.718.23.843.872.833,2.428-.034,4.859,0,7.287-.023a1.742,1.742,0,0,1,1.614.818c.783,1.2,1.6,2.379,2.379,3.579.46.7.279,1.039-.572,1.041-4.758.012-9.515.025-14.273,0a2.726,2.726,0,0,1-2.812-2.907c-.025-1.943-.008-3.887-.008-5.832V11.146c0-1.005-.023-1.024-1.034-1.03l-1.608-.008A1.3,1.3,0,0,1,0,9.515V9.208L6.139,0Z" fill="rgba(0,0,0,0.8)"/>
    <path id="Path_96" data-name="Path 96" d="M98.221,47.049c-1.183-1.481-2.133-3.123-3.223-4.672-.893-1.278-1.75-2.583-2.609-3.884-.614-.921-.307-1.5.81-1.553.665-.029,1.331-.023,2-.009.488.011.678-.2.677-.689q-.014-7.673,0-15.347c0-.577-.272-.672-.758-.671-2.48.014-4.96-.014-7.442.017a1.813,1.813,0,0,1-1.72-.9C85.2,18.149,84.389,17,83.623,15.82c-.43-.661-.253-1.013.542-1.016,4.807-.014,9.615-.031,14.426.009a2.715,2.715,0,0,1,2.724,2.983q.012,8.978,0,17.956c0,1.174,0,1.174,1.188,1.176h1.456a1.2,1.2,0,0,1,1.159.6v.46c-.2.293-.408.585-.614.881q-2.753,4.091-5.516,8.178Z" transform="translate(-70.596 -12.519)" fill="rgba(0,0,0,0.8)"/>
  </g>
</svg>
