<svg xmlns="http://www.w3.org/2000/svg" width="79.325" height="76.714" viewBox="0 0 79.325 76.714">
  <g id="tools" transform="translate(-0.001 -6.92)">
    <g id="Group_129" data-name="Group 129" transform="translate(0.001 6.92)">
      <path id="Path_149" data-name="Path 149" d="M79.157,65.8a13.846,13.846,0,0,0-18.7-8.707L46.88,43.516l18.032-17.9,4.27-.121a1.509,1.509,0,0,0,1.252-.739l6.111-10.276a1.509,1.509,0,0,0-.226-1.841L71.039,7.361A1.509,1.509,0,0,0,69.2,7.135L58.922,13.246a1.509,1.509,0,0,0-.739,1.252l-.121,4.255L40.075,36.71,27.731,24.367A13.807,13.807,0,0,0,6.47,10.53,1.509,1.509,0,0,0,6.576,13.1l6.851,3.818c1.509.86,1.811,3.425.588,5.6S10.454,25.8,8.93,24.956l-6.353-3.44A1.509,1.509,0,0,0,.344,22.934a13.807,13.807,0,0,0,19.209,11.83L30.78,45.99l-4.859,4.859-1.1-1.086a3.154,3.154,0,0,0-4.361,0L18.95,51.272a3.018,3.018,0,0,0-.166,4.15L.933,73.242a3.018,3.018,0,0,0-.094,4.267q.046.048.094.094l5.1,5.1A3.018,3.018,0,0,0,10.3,82.8q.048-.046.094-.094L28.26,64.853a3.018,3.018,0,0,0,4.15-.166l1.509-1.509a3.018,3.018,0,0,0,.094-4.267q-.046-.048-.094-.094l-1.1-1.1,4.829-4.934L52.282,67.418A13.807,13.807,0,0,0,75.762,79.369a1.509,1.509,0,0,0-.679-2.445l-8.5-2.279a2.792,2.792,0,0,1-1.781-1.735,5.538,5.538,0,0,1-.151-3.561c.634-2.369,2.641-4.059,4.331-3.606l8.4,2.263a1.418,1.418,0,0,0,.407,0,1.509,1.509,0,0,0,1.358-2.2ZM60.582,20.429a1.509,1.509,0,0,0,.438-1.026l.121-4.029L69.7,10.288l3.621,3.622-4.98,8.541-4.1.151a1.509,1.509,0,0,0-1.026.438L44.8,41.433l-2.6-2.6ZM8.251,80.561,3.075,75.415l17.942-17.9,2.6,2.6,2.475,2.565ZM30.327,62.453l-1.992-2.007-.77-.77-6.338-6.383,1.509-1.509,9.054,9.174Zm.287-6.881-2.6-2.6,4.859-4.859,2.6,2.6ZM69.726,62.83a5.283,5.283,0,0,0-1.373-.181A7.394,7.394,0,0,0,61.7,68.565a8.556,8.556,0,0,0,.287,5.508,5.749,5.749,0,0,0,3.787,3.471l5.613,1.509a10.789,10.789,0,0,1-16.025-11.74,1.509,1.509,0,0,0-.407-1.4L20.941,31.867a1.509,1.509,0,0,0-1.781-.211A10.8,10.8,0,0,1,3.965,25.8l3.44,1.916a5.327,5.327,0,0,0,2.626.679A7.877,7.877,0,0,0,16.6,24.111c2.052-3.667,1.252-8.028-1.765-9.718L10.439,11.9A10.789,10.789,0,0,1,24.578,24.5a1.509,1.509,0,0,0,.407,1.4L59.073,59.979a1.509,1.509,0,0,0,1.765.272,10.8,10.8,0,0,1,14.35,4.059Z" transform="translate(-0.001 -6.92)" fill="#ffd800"/>
    </g>
  </g>
</svg>
