<svg xmlns="http://www.w3.org/2000/svg" width="274" height="66.736" viewBox="0 0 274 66.736">
                        <g id="Group_43" data-name="Group 43" transform="translate(4.234 -338.622)">
                            <path id="Path_120" data-name="Path 120"
                                  d="M210.417,369.192a5.524,5.524,0,0,0-4.222,1.793,6.427,6.427,0,0,0-1.683,4.591,6.514,6.514,0,0,0,1.711,4.646,5.566,5.566,0,0,0,4.215,1.82,5.631,5.631,0,0,0,4.277-1.793,6.522,6.522,0,0,0,1.7-4.694,6.349,6.349,0,0,0-1.7-4.6A5.726,5.726,0,0,0,210.417,369.192Zm5.755-4.475h5.461v21.8h-5.461V384.2a10.677,10.677,0,0,1-3.216,2.182,9.067,9.067,0,0,1-3.5.671,9.727,9.727,0,0,1-7.322-3.271,11.358,11.358,0,0,1-3.086-8.122,11.669,11.669,0,0,1,2.99-8.259,9.536,9.536,0,0,1,7.253-3.216,9.361,9.361,0,0,1,3.688.732,10.144,10.144,0,0,1,3.189,2.2Zm-37.868,21.8H175.4v-21.8h5.338v12.8l11.167-12.8h2.627v21.8h-5.337V373.975Zm-21.486-21.726-6.474,16.471h12.947Zm-2.888-7.753H159.6l9.525,24.224H172.4v9.648h-5.42v-4.393H146.615v4.393H141.2v-9.648h3.278Z"
                                  transform="translate(-64.13 -8.121)" fill="#281e85" fill-rule="evenodd"/>
                            <path id="Path_121" data-name="Path 121"
                                  d="M388.855,374.827a5.524,5.524,0,0,0-4.222,1.793,6.429,6.429,0,0,0-1.683,4.591,6.514,6.514,0,0,0,1.711,4.646,5.567,5.567,0,0,0,4.215,1.82,5.63,5.63,0,0,0,4.277-1.793,6.522,6.522,0,0,0,1.7-4.694,6.349,6.349,0,0,0-1.7-4.6A5.725,5.725,0,0,0,388.855,374.827Zm5.755-4.475h5.461v21.8h-5.461v-2.319a10.686,10.686,0,0,1-3.216,2.182,9.066,9.066,0,0,1-3.5.671,9.726,9.726,0,0,1-7.322-3.271,11.356,11.356,0,0,1-3.086-8.122,11.671,11.671,0,0,1,2.99-8.259,9.536,9.536,0,0,1,7.253-3.216,9.366,9.366,0,0,1,3.689.732,10.158,10.158,0,0,1,3.189,2.2ZM359.684,384.1l6.747-13.747h3.606l5.433,21.8h-5.351l-2.922-12.8-6.514,12.8h-2.245l-6.35-12.8-2.935,12.8h-5.337l5.453-21.8h3.606Zm-23.265-5.576a5.411,5.411,0,0,0-2.135-2.909,6.3,6.3,0,0,0-3.709-1.115,6.637,6.637,0,0,0-4.017,1.259,7.019,7.019,0,0,0-2,2.765Zm5.44,4.27H324.306a5.93,5.93,0,0,0,2.025,3.715,6.321,6.321,0,0,0,4.2,1.375,7.224,7.224,0,0,0,5.248-2.155l4.585,2.169a10.923,10.923,0,0,1-4.112,3.62,12.87,12.87,0,0,1-5.693,1.17,11.231,11.231,0,0,1-8.328-3.23,10.988,10.988,0,0,1-3.216-8.081,11.346,11.346,0,0,1,3.216-8.266,10.78,10.78,0,0,1,8.061-3.292,11.23,11.23,0,0,1,8.369,3.278,11.824,11.824,0,0,1,3.223,8.663Zm-34.433,4.721-3.578-9.21-3.75,9.21Zm-11.277,4.639v3.777h-4.885v-8.417h3.278l7.561-17.161h3.531l7.609,17.161h3.353v8.417H311.38v-3.777Z"
                                  transform="translate(-130.304 -13.756)" fill="#1382bb" fill-rule="evenodd"/>
                            <path id="Path_123" data-name="Path 123"
                                  d="M40.223,373.778c-5.305,0-6.115,3.648-6.242,5.405v20.172c.129,3.627-2.788,13.153-15.211,13.153-14.366,0-16.208-10.669-16.208-14.535V378.3H-2.948A33.361,33.361,0,0,0,47.22,415.524V379.57A6.791,6.791,0,0,0,40.223,373.778Z"
                                  transform="translate(0 -15.503)" fill="#1382bb" fill-rule="evenodd"/>
                            <path id="Path_124" data-name="Path 124"
                                  d="M41.757,338.622A33.161,33.161,0,0,0,24.4,343.5v38.273a6.785,6.785,0,0,0,7,5.784c5.3,0,6.12-3.644,6.246-5.4V361.987c0-4.06,2.791-13.458,15.207-13.458,14.366,0,16.208,10.975,16.208,14.838v19.676H73.24a33.369,33.369,0,0,0-31.483-44.421Z"
                                  transform="translate(-12.626 0)" fill="#281e82" fill-rule="evenodd"/>
                        </g>
                    </svg>