<svg id="calendar-2" xmlns="http://www.w3.org/2000/svg" width="73" height="73" viewBox="0 0 73 73">
  <g id="Group_100" data-name="Group 100">
    <g id="Group_99" data-name="Group 99">
      <path id="Path_148" data-name="Path 148" d="M64.445,5.7H61.023V0h-5.7V5.7H17.68V0h-5.7V5.7H8.555A8.564,8.564,0,0,0,0,14.258V64.445A8.564,8.564,0,0,0,8.555,73H64.445A8.564,8.564,0,0,0,73,64.445V14.258A8.564,8.564,0,0,0,64.445,5.7ZM67.3,64.445A2.855,2.855,0,0,1,64.445,67.3H8.555A2.855,2.855,0,0,1,5.7,64.445V26.8H67.3Zm0-43.344H5.7V14.258a2.855,2.855,0,0,1,2.852-2.852h3.422v5.7h5.7v-5.7H55.32v5.7h5.7v-5.7h3.422A2.855,2.855,0,0,1,67.3,14.258Z" fill="#ffd800"/>
    </g>
  </g>
  <g id="Group_102" data-name="Group 102" transform="translate(10.836 32.793)">
    <g id="Group_101" data-name="Group 101">
      <rect id="Rectangle_67" data-name="Rectangle 67" width="5.703" height="5.703" fill="#ffd800"/>
    </g>
  </g>
  <g id="Group_104" data-name="Group 104" transform="translate(22.242 32.793)">
    <g id="Group_103" data-name="Group 103">
      <rect id="Rectangle_68" data-name="Rectangle 68" width="5.703" height="5.703" fill="#ffd800"/>
    </g>
  </g>
  <g id="Group_106" data-name="Group 106" transform="translate(33.648 32.793)">
    <g id="Group_105" data-name="Group 105">
      <rect id="Rectangle_69" data-name="Rectangle 69" width="5.703" height="5.703" fill="#ffd800"/>
    </g>
  </g>
  <g id="Group_108" data-name="Group 108" transform="translate(45.055 32.793)">
    <g id="Group_107" data-name="Group 107">
      <rect id="Rectangle_70" data-name="Rectangle 70" width="5.703" height="5.703" fill="#ffd800"/>
    </g>
  </g>
  <g id="Group_110" data-name="Group 110" transform="translate(56.461 32.793)">
    <g id="Group_109" data-name="Group 109">
      <rect id="Rectangle_71" data-name="Rectangle 71" width="5.703" height="5.703" fill="#ffd800"/>
    </g>
  </g>
  <g id="Group_112" data-name="Group 112" transform="translate(10.836 44.199)">
    <g id="Group_111" data-name="Group 111">
      <rect id="Rectangle_72" data-name="Rectangle 72" width="5.703" height="5.703" fill="#ffd800"/>
    </g>
  </g>
  <g id="Group_114" data-name="Group 114" transform="translate(22.242 44.199)">
    <g id="Group_113" data-name="Group 113">
      <rect id="Rectangle_73" data-name="Rectangle 73" width="5.703" height="5.703" fill="#ffd800"/>
    </g>
  </g>
  <g id="Group_116" data-name="Group 116" transform="translate(33.648 44.199)">
    <g id="Group_115" data-name="Group 115">
      <rect id="Rectangle_74" data-name="Rectangle 74" width="5.703" height="5.703" fill="#ffd800"/>
    </g>
  </g>
  <g id="Group_118" data-name="Group 118" transform="translate(45.055 44.199)">
    <g id="Group_117" data-name="Group 117">
      <rect id="Rectangle_75" data-name="Rectangle 75" width="5.703" height="5.703" fill="#ffd800"/>
    </g>
  </g>
  <g id="Group_120" data-name="Group 120" transform="translate(10.836 55.605)">
    <g id="Group_119" data-name="Group 119">
      <rect id="Rectangle_76" data-name="Rectangle 76" width="5.703" height="5.703" fill="#ffd800"/>
    </g>
  </g>
  <g id="Group_122" data-name="Group 122" transform="translate(22.242 55.605)">
    <g id="Group_121" data-name="Group 121">
      <rect id="Rectangle_77" data-name="Rectangle 77" width="5.703" height="5.703" fill="#ffd800"/>
    </g>
  </g>
  <g id="Group_124" data-name="Group 124" transform="translate(33.648 55.605)">
    <g id="Group_123" data-name="Group 123">
      <rect id="Rectangle_78" data-name="Rectangle 78" width="5.703" height="5.703" fill="#ffd800"/>
    </g>
  </g>
  <g id="Group_126" data-name="Group 126" transform="translate(45.055 55.605)">
    <g id="Group_125" data-name="Group 125">
      <rect id="Rectangle_79" data-name="Rectangle 79" width="5.703" height="5.703" fill="#ffd800"/>
    </g>
  </g>
  <g id="Group_128" data-name="Group 128" transform="translate(56.461 44.199)">
    <g id="Group_127" data-name="Group 127">
      <rect id="Rectangle_80" data-name="Rectangle 80" width="5.703" height="5.703" fill="#ffd800"/>
    </g>
  </g>
</svg>
