<svg xmlns="http://www.w3.org/2000/svg" width="74.617" height="83.727" viewBox="0 0 74.617 83.727">
  <g id="shield-7" transform="translate(-0.499)">
    <path id="Path_135" data-name="Path 135" d="M66.346,13.933a39.2,39.2,0,0,1-7.527-1.708,1.227,1.227,0,1,0-.78,2.326,41.634,41.634,0,0,0,8,1.816,7.624,7.624,0,0,1,6.567,8.492A171.591,171.591,0,0,1,68.7,46.267c-2.2,8.508-4.792,14.428-7.69,17.595A120.852,120.852,0,0,1,42.385,79.82a7.931,7.931,0,0,1-9.156,0A120.852,120.852,0,0,1,14.605,63.862c-2.9-3.167-5.486-9.087-7.69-17.595A171.724,171.724,0,0,1,3.009,24.858a7.625,7.625,0,0,1,6.567-8.492A40.128,40.128,0,0,0,33.885,4.132a5.423,5.423,0,0,1,7.846,0,40.238,40.238,0,0,0,11.19,8.3,1.226,1.226,0,1,0,1.1-2.194,37.811,37.811,0,0,1-10.51-7.792,7.876,7.876,0,0,0-11.4,0A37.7,37.7,0,0,1,9.268,13.933,10.083,10.083,0,0,0,.574,25.155C1.716,34.524,5.194,57.211,12.8,65.518a123.341,123.341,0,0,0,19.016,16.3,10.388,10.388,0,0,0,11.991,0,123.341,123.341,0,0,0,19.016-16.3c7.6-8.307,11.08-30.994,12.222-40.363A10.083,10.083,0,0,0,66.346,13.933Zm0,0" transform="translate(0)" fill="#ffd800"/>
    <path id="Path_136" data-name="Path 136" d="M82.024,65.216A45.757,45.757,0,0,1,60.5,75.66a4.74,4.74,0,0,0-3.784,5.3A173.762,173.762,0,0,0,59.855,98.42c2.556,9.867,5.027,13.623,6.273,14.984,4.095,4.474,11.692,10.452,15.857,13.618a4.654,4.654,0,0,0,5.614,0c4.164-3.165,11.762-9.144,15.857-13.618,1.246-1.361,3.717-5.117,6.273-14.984a173.872,173.872,0,0,0,3.143-17.459,4.741,4.741,0,0,0-3.785-5.3A45.757,45.757,0,0,1,87.559,65.216,4.252,4.252,0,0,0,82.024,65.216ZM110.44,80.629A171.514,171.514,0,0,1,107.353,97.8c-2.584,9.974-5.022,13.193-5.708,13.943-4.113,4.494-12.232,10.812-15.532,13.32a2.191,2.191,0,0,1-2.645,0c-3.3-2.508-11.419-8.827-15.531-13.32-.686-.75-3.124-3.969-5.708-13.943a171.583,171.583,0,0,1-3.087-17.176,2.286,2.286,0,0,1,1.819-2.56,48.175,48.175,0,0,0,22.668-11,1.783,1.783,0,0,1,2.324,0,48.175,48.175,0,0,0,22.668,11A2.287,2.287,0,0,1,110.44,80.629Zm0,0" transform="translate(-46.984 -53.695)" fill="#ffd800"/>
    <path id="Path_137" data-name="Path 137" d="M149.741,203.93c-.922-.751-4.036-2.3-6.265.643a4.429,4.429,0,0,0,.643,6.265l3.557,2.894a1.227,1.227,0,0,0,1.548-1.9l-3.557-2.894a1.952,1.952,0,0,1-.289-2.814,1.883,1.883,0,0,1,2.814-.289l7.365,5.992a1.226,1.226,0,0,0,1.637-.08l10.777-10.676a2,2,0,1,1,2.816,2.842L157.95,216.627a1.938,1.938,0,0,1-2.67.13l-2.038-1.658a1.226,1.226,0,1,0-1.548,1.9l2.038,1.658a4.454,4.454,0,0,0,5.945-.291l12.836-12.716a4.453,4.453,0,0,0-6.268-6.328l-9.994,9.9Zm0,0" transform="translate(-118.735 -165.653)" fill="#ffd800"/>
  </g>
</svg>
