<svg id="ventilation" xmlns="http://www.w3.org/2000/svg" width="94.579" height="94.579" viewBox="0 0 94.579 94.579">
  <path id="Path_159" data-name="Path 159" d="M0,0V94.579H94.579V0ZM91.426,91.426H3.153V3.153H91.426Zm0,0" fill="#332b00"/>
  <path id="Path_160" data-name="Path 160" d="M85.832,123.663A37.832,37.832,0,1,0,48,85.832,37.831,37.831,0,0,0,85.832,123.663ZM51.192,87.408h3.193a31.358,31.358,0,0,0,8.1,19.546l-2.254,2.254A34.542,34.542,0,0,1,51.192,87.408Zm55.762-24.92a31.358,31.358,0,0,0-19.546-8.1V51.192A34.541,34.541,0,0,1,109.2,60.234Zm-22.7-8.1a31.356,31.356,0,0,0-19.538,8.1l-2.254-2.254a34.541,34.541,0,0,1,21.793-9.042Zm1.576,3.073A28.374,28.374,0,1,1,57.458,85.832,28.374,28.374,0,0,1,85.832,57.458ZM64.717,109.175a31.356,31.356,0,0,0,19.538,8.1v3.193a34.542,34.542,0,0,1-21.793-9.042Zm22.691,8.1a31.358,31.358,0,0,0,19.546-8.1l2.254,2.254a34.542,34.542,0,0,1-21.8,9.042Zm24.021-8.077-2.254-2.254a31.356,31.356,0,0,0,8.1-19.538h3.193A34.542,34.542,0,0,1,111.429,109.2Zm9.042-24.945h-3.193a31.356,31.356,0,0,0-8.1-19.538l2.254-2.254A34.542,34.542,0,0,1,120.471,84.255ZM60.234,62.462l2.254,2.254a31.356,31.356,0,0,0-8.1,19.538H51.192A34.541,34.541,0,0,1,60.234,62.462Zm0,0" transform="translate(-38.542 -38.542)" fill="#332b00"/>
  <path id="Path_161" data-name="Path 161" d="M142.751,129.556l-1.473-2.786a25.329,25.329,0,0,0-9.567,8.858l2.665,1.684A22.191,22.191,0,0,1,142.751,129.556Zm0,0" transform="translate(-105.759 -101.791)" fill="#332b00"/>
  <path id="Path_162" data-name="Path 162" d="M113.162,144.776a1.576,1.576,0,0,0,1.506,1.1,1.6,1.6,0,0,0,.463-.069l15.29-4.694a7.868,7.868,0,0,0,2.946,2.946l-4.7,15.29a1.576,1.576,0,0,0,1.039,1.967,25.36,25.36,0,0,0,15.063,0,1.576,1.576,0,0,0,1.039-1.967l-4.7-15.29a7.869,7.869,0,0,0,2.946-2.946l7.683,2.364a15.687,15.687,0,0,1-5.921,6.642l1.75,2.623a18.675,18.675,0,0,0,7.208-8.333l3,.922a22.021,22.021,0,0,1-8.776,10.585l1.684,2.664a25.221,25.221,0,0,0,3.362-40.134l-2.1,2.348a22.066,22.066,0,0,1,5.791,8.373l-2.995.921a18.87,18.87,0,0,0-1.646-3.163l-2.642,1.721a15.747,15.747,0,0,1,1.247,2.378l-7.641,2.345a7.868,7.868,0,0,0-2.946-2.946l4.7-15.29a1.577,1.577,0,0,0-1.038-1.967,25.485,25.485,0,0,0-15.063,0,1.577,1.577,0,0,0-1.039,1.967l4.7,15.29a7.861,7.861,0,0,0-2.946,2.946l-7.641-2.345a15.747,15.747,0,0,1,1.247-2.378,15.963,15.963,0,0,1,4.618-4.618l-1.724-2.641a19.188,19.188,0,0,0-5.536,5.538,18.9,18.9,0,0,0-1.649,3.162l-4.607-1.419a1.576,1.576,0,0,0-1.969,1.039,25.374,25.374,0,0,0,0,15.06Zm29.162,13.951a22.286,22.286,0,0,1-10.158,0l4.2-13.687a4.344,4.344,0,0,0,1.745,0ZM158.7,132.177a22,22,0,0,1,.607,5.069,22.234,22.234,0,0,1-.594,5.076l-2.995-.923a19.867,19.867,0,0,0,.436-4.153,18.994,18.994,0,0,0-.46-4.149Zm-6.063,1.86a15.743,15.743,0,0,1,.364,3.21,16.849,16.849,0,0,1-.316,3.223l-7.651-2.348a4.447,4.447,0,0,0,0-1.75Zm-20.478-18.271a22.286,22.286,0,0,1,10.158,0l-4.2,13.687a4.37,4.37,0,0,0-1.75,0Zm5.079,16.751a4.729,4.729,0,1,1-4.729,4.729A4.729,4.729,0,0,1,137.24,132.517Zm-21.482-.349,3.026.929a19,19,0,0,0-.46,4.149h3.153a15.743,15.743,0,0,1,.369-3.21l7.6,2.334a4.37,4.37,0,0,0,0,1.75l-13.689,4.2A22.273,22.273,0,0,1,115.758,132.169Zm0,0" transform="translate(-89.95 -89.957)" fill="#332b00"/>
  <path id="Path_163" data-name="Path 163" d="M44.611,32H32V44.611H44.611Zm-3.153,9.458H35.153V35.153h6.305Zm0,0" transform="translate(-25.695 -25.695)" fill="#332b00"/>
  <path id="Path_164" data-name="Path 164" d="M396.611,32H384V44.611h12.611Zm-3.153,9.458h-6.305V35.153h6.305Zm0,0" transform="translate(-308.337 -25.695)" fill="#332b00"/>
  <path id="Path_165" data-name="Path 165" d="M44.611,384H32v12.611H44.611Zm-3.153,9.458H35.153v-6.305h6.305Zm0,0" transform="translate(-25.695 -308.337)" fill="#332b00"/>
  <path id="Path_166" data-name="Path 166" d="M384,396.611h12.611V384H384Zm3.153-9.458h6.305v6.305h-6.305Zm0,0" transform="translate(-308.337 -308.337)" fill="#332b00"/>
  <path id="Path_167" data-name="Path 167" d="M352,432h3.153v3.153H352Zm0,0" transform="translate(-282.642 -346.879)" fill="#332b00"/>
  <path id="Path_168" data-name="Path 168" d="M320,432h3.153v3.153H320Zm0,0" transform="translate(-256.947 -346.879)" fill="#332b00"/>
</svg>
